<?xml version="1.0" standalone="no"?>
<!DOCTYPE svg PUBLIC "-//W3C//DTD SVG 20010904//EN"
 "http://www.w3.org/TR/2001/REC-SVG-20010904/DTD/svg10.dtd">
<svg version="1.0" xmlns="http://www.w3.org/2000/svg"
 width="512.000000pt" height="512.000000pt" viewBox="0 0 512.000000 512.000000"
 preserveAspectRatio="xMidYMid meet">

<g transform="translate(0.000000,512.000000) scale(0.100000,-0.100000)"
fill="#000000" stroke="none">
<path d="M100 4060 l0 -350 118 6 c149 7 246 -10 358 -66 125 -61 167 -113
297 -367 59 -117 107 -214 107 -217 0 -3 -30 -25 -68 -49 -237 -154 -431 -380
-448 -524 -3 -26 -10 -58 -16 -69 -7 -15 -7 -28 1 -42 16 -30 14 -39 -4 -16
-12 15 -12 11 1 -18 10 -20 22 -34 27 -31 6 3 7 1 3 -5 -4 -7 4 -46 19 -88 14
-43 28 -94 31 -115 4 -21 9 -37 13 -35 3 2 5 -19 4 -47 -2 -42 0 -47 7 -27 6
16 8 -25 4 -120 -11 -259 -13 -420 -4 -415 4 3 11 -2 14 -11 4 -10 2 -13 -6
-8 -7 4 -2 -7 11 -25 63 -87 218 -139 306 -101 11 4 52 20 90 35 119 45 203
110 252 195 25 42 41 94 23 70 -10 -13 -11 -12 -6 3 3 10 6 24 6 30 0 8 4 7 9
-2 6 -10 13 3 21 41 l13 56 34 -10 c72 -20 190 -82 232 -122 14 -14 54 -38 89
-54 47 -21 69 -38 88 -68 15 -23 22 -30 19 -17 -5 19 -3 22 11 16 14 -5 16 -3
10 13 -5 13 -4 16 3 9 11 -11 125 -231 405 -778 l157 -307 290 2 289 3 234
505 c128 278 241 522 251 542 18 37 41 42 32 7 -9 -32 2 -21 27 29 22 44 27
48 54 44 17 -2 45 4 68 16 21 11 41 20 44 20 3 -1 37 19 75 44 92 59 144 85
194 97 40 9 41 9 47 -25 3 -19 10 -32 14 -29 5 3 6 -5 2 -17 -4 -16 -2 -19 8
-13 9 5 11 4 6 -3 -9 -16 18 -67 67 -127 23 -27 35 -45 27 -40 -8 4 1 -9 20
-29 76 -80 219 -146 325 -148 53 -2 68 3 122 35 65 39 109 89 97 108 -4 8 -3
9 4 5 7 -4 12 -4 13 1 0 4 4 31 7 58 4 28 6 127 4 220 -3 170 10 360 30 445 6
25 21 64 35 88 13 23 21 47 17 54 -4 7 -3 8 4 4 6 -3 16 2 21 13 16 29 13 38
-4 15 -14 -18 -14 -17 -5 9 5 16 10 40 9 55 0 24 -1 25 -9 7 -6 -14 -9 -3 -9
40 -2 168 -224 422 -519 595 -40 23 -74 45 -76 49 -7 11 129 274 183 355 69
102 157 188 229 223 55 27 63 28 252 33 l195 5 0 340 0 340 -2452 3 -2453 2 0
-350z m2640 5 l0 -175 -52 0 c-73 0 -181 -25 -230 -52 -23 -13 -55 -40 -72
-61 -30 -37 -31 -43 -31 -135 0 -84 4 -105 26 -153 l27 -57 -37 -6 c-72 -12
-77 -10 -101 47 -29 65 -39 214 -20 282 35 124 155 205 330 224 l55 6 0 70 0
70 -1110 3 c-611 1 -1114 0 -1120 -2 -6 -2 -9 -31 -7 -68 l4 -64 74 -13 c118
-20 221 -77 325 -180 47 -47 99 -106 116 -131 30 -45 263 -477 266 -494 3 -13
-61 -49 -76 -43 -6 2 -56 87 -110 188 -162 305 -306 486 -418 527 -59 22 -182
42 -255 42 l-44 0 0 168 c0 93 3 172 7 175 3 4 557 7 1230 7 l1223 0 0 -175z
m2088 -2 l-3 -176 -80 2 c-106 2 -175 -12 -262 -54 -168 -83 -351 -318 -464
-597 -12 -32 -27 -58 -31 -58 -8 0 -88 38 -97 46 -2 2 27 61 64 131 146 278
289 463 419 541 63 39 172 77 242 87 111 15 104 9 104 81 l0 64 -764 0 -763 0
-6 -62 c-3 -34 -3 -66 -1 -70 3 -4 20 -8 38 -8 52 0 178 -36 245 -69 84 -43
126 -83 162 -156 50 -102 42 -229 -23 -376 l-29 -66 -47 10 c-26 5 -48 10 -50
12 -1 1 12 38 29 81 37 91 50 207 29 269 -17 50 -73 111 -130 140 -59 30 -180
55 -265 55 l-65 0 0 175 0 175 875 0 875 0 -2 -177z m-335 -30 c-7 -2 -19 -2
-25 0 -7 3 -2 5 12 5 14 0 19 -2 13 -5z m-3393 -13 c19 -13 -46 -13 -75 0 -16
7 -11 9 20 9 22 0 47 -4 55 -9z m140 -11 l25 -20 -49 6 c-58 8 -76 14 -76 26
0 18 75 9 100 -12z m138 -16 c23 -13 42 -26 42 -29 0 -3 -19 -3 -42 1 -39 6
-118 47 -118 61 0 11 78 -10 118 -33z m67 27 c8 -13 -5 -13 -25 0 -13 8 -13
10 2 10 9 0 20 -4 23 -10z m128 -15 c44 -31 47 -38 10 -29 -31 8 -103 42 -103
49 0 15 61 1 93 -20z m181 -6 c27 -16 46 -32 43 -35 -7 -7 -93 35 -108 52 -21
25 13 16 65 -17z m62 16 c24 -18 7 -19 -26 0 -16 9 -19 14 -9 15 8 0 24 -7 35
-15z m162 -16 c24 -17 41 -34 38 -36 -6 -7 -96 49 -96 60 0 14 16 7 58 -24z
m58 10 l19 -22 -32 17 c-35 18 -41 26 -20 26 8 0 22 -10 33 -21z m259 -39 c14
-22 -13 -8 -41 22 l-29 31 32 -22 c18 -12 35 -26 38 -31z m13 30 c7 -11 11
-20 9 -20 -2 0 -12 9 -22 20 -10 11 -14 20 -9 20 5 0 15 -9 22 -20z m43 3 c13
-16 12 -17 -3 -4 -10 7 -18 15 -18 17 0 8 8 3 21 -13z m-1620 -13 l24 -21 -35
17 c-43 21 -47 24 -28 24 9 0 26 -9 39 -20z m156 -5 c23 -14 43 -29 43 -34 0
-17 -106 3 -142 27 -21 13 -38 26 -38 28 0 2 21 4 47 4 32 0 60 -8 90 -25z
m157 -14 l40 -26 -43 -3 c-31 -2 -54 3 -87 23 -24 14 -44 29 -44 33 0 17 96
-2 134 -27z m1186 4 c19 -19 32 -35 29 -35 -3 0 -20 16 -39 35 -19 19 -32 35
-29 35 3 0 20 -16 39 -35z m-674 -29 c21 -14 34 -26 28 -26 -29 0 -113 33
-139 54 l-30 25 51 -13 c28 -8 69 -25 90 -40z m187 1 c16 -10 26 -22 23 -25
-8 -7 -136 57 -136 69 0 11 75 -18 113 -44z m199 22 c47 -31 56 -39 40 -39
-15 0 -117 69 -103 70 8 0 36 -14 63 -31z m-741 -16 c21 -14 39 -28 39 -30 0
-2 -21 -1 -47 3 -43 6 -133 48 -133 61 0 15 107 -11 141 -34z m1014 -14 l20
-23 -32 23 c-38 26 -56 49 -27 33 11 -6 28 -20 39 -33z m-862 -7 c26 -14 45
-27 43 -29 -12 -12 -99 13 -137 39 l-44 29 45 -6 c25 -4 66 -19 93 -33z m577
-9 c19 -13 28 -23 19 -23 -15 0 -109 55 -109 65 0 7 51 -16 90 -42z m266 -14
c11 -19 -29 7 -51 32 l-20 23 32 -23 c18 -12 35 -27 39 -32z m-521 16 c17 -7
39 -20 50 -30 19 -16 19 -16 -10 -10 -30 6 -115 51 -115 61 0 6 32 -3 75 -21z
m-167 -18 c60 -29 63 -41 11 -32 -39 7 -129 49 -129 61 0 10 77 -9 118 -29z
m672 -33 c0 -9 -61 30 -78 50 -9 11 4 5 31 -13 26 -17 47 -34 47 -37z m-299
25 c33 -18 57 -34 55 -36 -6 -6 -86 31 -111 51 -32 25 -7 18 56 -15z m-971
-25 c0 -11 -22 -1 -47 21 l-28 26 38 -22 c20 -11 37 -23 37 -25z m111 24 c22
-12 39 -24 39 -28 0 -13 -117 7 -142 24 -16 10 -28 20 -28 22 0 14 98 1 131
-18z m159 -12 l35 -21 -43 -3 c-32 -2 -54 3 -88 23 -24 14 -44 28 -44 31 0 12
108 -11 140 -30z m110 4 c19 -6 46 -19 60 -31 l25 -20 -50 6 c-43 6 -115 38
-115 51 0 7 44 4 80 -6z m354 -10 c63 -24 100 -56 50 -44 -32 8 -124 52 -124
59 0 9 19 5 74 -15z m473 -1 c19 -12 32 -23 29 -26 -2 -3 -22 7 -43 21 -45 31
-35 35 14 5z m-254 -21 c22 -11 37 -22 34 -24 -6 -7 -71 20 -100 41 l-22 17
25 -7 c14 -4 42 -16 63 -27z m-374 -12 c42 -20 43 -21 18 -24 -26 -3 -137 40
-137 53 0 11 74 -7 119 -29z m621 -11 c0 -10 -16 -4 -40 16 l-25 20 33 -16
c17 -8 32 -18 32 -20z m-1111 -12 l46 -28 -34 -3 c-24 -3 -40 3 -57 19 -49 46
-23 52 45 12z m171 -11 l35 -22 -47 0 c-43 0 -138 34 -138 50 0 14 118 -8 150
-28z m445 18 c22 -6 51 -17 65 -25 22 -13 23 -14 5 -15 -33 0 -88 18 -120 41
-31 21 -31 21 50 -1z m259 -30 c16 -16 -14 -12 -60 9 -23 10 -45 24 -49 30 -7
13 93 -23 109 -39z m-561 8 c20 -10 37 -21 37 -25 0 -13 -99 7 -133 27 -20 12
-37 24 -37 26 0 10 99 -11 133 -28z m748 16 c17 -8 28 -18 25 -21 -3 -3 -20 4
-38 16 -39 24 -30 28 13 5z m-588 -35 c20 -11 37 -22 37 -24 0 -3 -19 -2 -42
1 -42 7 -118 39 -118 50 0 11 85 -8 123 -27z m567 1 c19 -11 31 -19 25 -19 -5
0 -26 8 -45 19 -19 11 -30 19 -25 19 6 0 26 -8 45 -19z m-212 -17 c18 -9 31
-18 28 -20 -7 -7 -78 17 -101 35 -19 13 -18 14 10 7 17 -3 45 -14 63 -22z
m-228 7 c20 -5 45 -17 55 -26 19 -14 18 -15 -20 -9 -48 8 -121 44 -90 45 11 0
36 -5 55 -10z m405 -16 c20 -8 35 -17 32 -20 -3 -3 -22 4 -44 15 -46 24 -40
27 12 5z m-870 -11 c47 -22 44 -33 -7 -33 -39 0 -128 31 -128 45 0 12 102 4
135 -12z m155 -5 l45 -22 -39 -4 c-39 -3 -120 21 -131 39 -12 18 81 8 125 -13z
m168 -16 l37 -17 -36 -3 c-33 -3 -129 30 -129 44 0 10 88 -6 128 -24z m342 1
c25 -9 39 -18 32 -21 -16 -5 -110 26 -118 40 -7 11 14 7 86 -19z m-177 -20
c16 -8 27 -16 24 -19 -8 -8 -104 17 -123 32 -17 14 -15 14 26 8 25 -3 58 -13
73 -21z m372 13 c19 -8 35 -17 35 -20 0 -7 -63 15 -74 25 -14 13 0 11 39 -5z
m-205 -42 c24 -15 24 -15 -15 -9 -22 4 -51 13 -65 21 -24 15 -24 15 15 9 22
-4 51 -13 65 -21z m-675 -1 c19 -9 35 -20 35 -25 0 -18 -48 -6 -70 17 -27 29
-15 32 35 8z m165 -3 l35 -19 -55 0 c-35 0 -68 7 -90 19 l-35 19 55 0 c35 0
68 -7 90 -19z m169 -8 l36 -17 -33 -3 c-35 -4 -128 23 -138 40 -9 15 90 0 135
-20z m527 18 c15 -6 24 -13 22 -16 -3 -3 -21 2 -39 10 -39 16 -24 21 17 6z
m-358 -35 c27 -16 26 -16 -22 -10 -51 7 -96 23 -96 35 0 11 87 -8 118 -25z
m342 -7 c10 -6 6 -7 -15 -3 -16 4 -34 11 -40 17 -12 12 31 1 55 -14z m-208 2
c21 -6 40 -15 43 -20 7 -12 -48 -2 -90 16 -23 9 -25 13 -10 13 11 1 37 -4 57
-9z m-493 -31 c17 -6 31 -16 31 -21 0 -15 -97 -4 -140 15 l-35 15 56 1 c31 1
70 -4 88 -10z m166 -4 l30 -13 -50 -1 c-27 0 -63 6 -80 14 l-30 13 50 1 c28 0
64 -6 80 -14z m134 4 c70 -15 80 -34 13 -26 -57 7 -125 36 -85 37 12 0 45 -5
72 -11z m376 -4 c17 -7 23 -14 15 -14 -8 0 -28 6 -45 14 -16 7 -23 14 -15 14
8 0 29 -6 45 -14z m-160 -26 c7 -8 -3 -9 -35 -4 -66 11 -87 28 -25 21 27 -4
54 -11 60 -17z m159 -19 c5 -5 -8 -5 -29 0 -20 4 -40 11 -43 15 -10 10 61 -5
72 -15z m-689 -19 l40 -19 -57 -1 c-32 -1 -58 1 -58 3 0 2 -3 11 -6 20 -9 22
30 21 81 -3z m170 4 c30 -13 30 -13 -25 -14 -30 0 -68 6 -85 14 -30 13 -30 13
25 14 30 0 69 -6 85 -14z m160 0 l30 -13 -40 0 c-22 0 -58 5 -80 13 l-40 13
50 1 c28 0 64 -6 80 -14z m170 -7 c14 -6 3 -7 -33 -5 -29 2 -59 10 -65 16 -9
9 -2 10 33 5 25 -4 54 -11 65 -16z m150 -8 l20 -9 -20 0 c-11 0 -29 4 -40 9
l-20 9 20 0 c11 0 29 -4 40 -9z m-340 -35 l30 -13 -50 -1 c-27 0 -63 6 -80 14
l-30 13 50 1 c28 0 64 -6 80 -14z m183 -5 c13 -9 5 -10 -36 -6 -28 3 -60 10
-70 16 -13 9 -5 10 36 6 28 -3 60 -10 70 -16z m-333 -5 c29 -13 29 -13 -30
-14 -33 0 -73 6 -90 14 -29 13 -29 13 30 14 33 0 74 -6 90 -14z m480 5 l30 -8
-30 0 c-16 0 -39 3 -50 8 l-20 9 20 -1 c11 0 34 -4 50 -8z m-639 -32 c-11 -6
-22 -6 -32 2 -24 21 -16 30 17 18 27 -9 29 -12 15 -20z m452 -4 c12 -4 22 -11
22 -16 0 -10 -86 0 -110 13 -18 10 52 12 88 3z m167 -4 l30 -8 -35 -1 c-19 0
-42 4 -50 9 -12 8 -11 10 5 9 11 -1 34 -5 50 -9z m-315 -10 c24 -7 24 -7 -10
-14 -22 -4 -52 -1 -80 8 l-45 14 55 0 c30 0 66 -3 80 -8z m-165 -12 l40 -12
-45 -7 c-50 -8 -148 10 -128 23 19 11 87 10 133 -4z m310 -28 c25 -6 20 -8
-27 -9 -31 0 -60 4 -63 9 -7 12 45 12 90 0z m158 3 c-13 -2 -33 -2 -45 0 -13
2 -3 4 22 4 25 0 35 -2 23 -4z m-298 -24 c11 -11 -89 -12 -125 -2 -24 7 -23 8
10 14 40 7 100 1 115 -12z m-166 -19 c24 -13 -75 -23 -101 -9 -22 12 -22 12
-3 20 21 9 80 3 104 -11z m444 3 c-13 -2 -33 -2 -45 0 -13 2 -3 4 22 4 25 0
35 -2 23 -4z m-143 -13 c18 -6 5 -8 -45 -8 -48 -1 -64 2 -50 8 25 11 62 11 95
0z m-165 -19 l30 -7 -33 -8 c-19 -4 -55 -5 -80 0 -41 6 -44 8 -22 15 31 9 66
9 105 0z m-147 -30 c10 -6 4 -10 -19 -15 -23 -4 -38 -2 -48 9 -14 13 -12 15
19 15 19 0 41 -4 48 -9z m1373 -146 l42 -135 146 0 145 0 -116 -85 -116 -85
43 -135 c24 -74 38 -132 32 -128 -7 3 -58 39 -113 80 -56 40 -105 73 -109 73
-4 0 -53 -33 -109 -73 -55 -41 -106 -77 -113 -80 -6 -4 8 54 32 128 l43 135
-116 85 -116 85 145 0 146 0 42 135 c23 74 44 135 46 135 2 0 23 -61 46 -135z
m-1286 115 c-11 -5 -33 -9 -50 -9 -26 0 -27 2 -10 9 11 5 34 9 50 9 26 0 27
-2 10 -9z m-95 -30 c0 -5 -7 -10 -15 -10 -8 0 -15 5 -15 10 0 6 7 10 15 10 8
0 15 -4 15 -10z m1503 -836 c34 -6 41 -13 79 -82 l41 -76 36 73 36 73 43 -5
c24 -3 45 -7 48 -10 5 -5 -142 -357 -155 -370 -6 -6 -176 329 -195 386 -6 19
5 21 67 11z m703 -74 l23 0 -31 -72 c-17 -40 -104 -233 -195 -428 -90 -195
-257 -556 -370 -802 l-207 -448 -175 0 -176 0 -51 98 c-44 83 -203 383 -675
1273 -55 103 -99 190 -99 193 0 3 7 6 16 6 13 0 15 7 10 32 -9 45 -32 76 -73
100 -38 23 -33 30 22 41 30 5 32 3 86 -91 30 -53 228 -422 439 -820 l385 -722
108 2 109 3 64 140 c36 77 171 370 301 650 129 281 273 588 319 684 l84 174
31 -7 c17 -3 42 -6 55 -6z m-2319 -662 c-3 -8 -6 -5 -6 6 -1 11 2 17 5 13 3
-3 4 -12 1 -19z"/>
<path d="M4771 2394 c0 -11 3 -14 6 -6 3 7 2 16 -1 19 -3 4 -6 -2 -5 -13z"/>
<path d="M4662 1880 c0 -14 2 -19 5 -12 2 6 2 18 0 25 -3 6 -5 1 -5 -13z"/>
<path d="M4671 1764 c0 -11 3 -14 6 -6 3 7 2 16 -1 19 -3 4 -6 -2 -5 -13z"/>
<path d="M512 1670 c0 -14 2 -19 5 -12 2 6 2 18 0 25 -3 6 -5 1 -5 -13z"/>
<path d="M4671 1604 c0 -11 3 -14 6 -6 3 7 2 16 -1 19 -3 4 -6 -2 -5 -13z"/>
<path d="M512 1590 c0 -14 2 -19 5 -12 2 6 2 18 0 25 -3 6 -5 1 -5 -13z"/>
<path d="M4662 1550 c0 -14 2 -19 5 -12 2 6 2 18 0 25 -3 6 -5 1 -5 -13z"/>
</g>
</svg>
